<svg width="60" height="40" viewBox="0 0 60 40" fill="none" xmlns="http://www.w3.org/2000/svg">
<path d="M58.194 10.6842L49.315 1.80584C47.8256 0.31658 45.6849 -0.310569 43.6505 0.146839L28.1402 3.63458C25.8905 4.14023 24.1438 5.88678 23.6381 8.13629L20.1501 23.6453C19.6927 25.6786 20.3199 27.82 21.8092 29.3093L30.6946 38.1939C32.1795 39.6787 34.3122 40.3067 36.3412 39.8574L51.8434 36.4206C54.1021 35.9203 55.8577 34.1684 56.3643 31.9108L59.8541 16.3437C60.3097 14.3113 59.6825 12.1726 58.194 10.6842ZM35.3378 18.4843L33.282 20.6963V25.5625H30.6186C29.6314 25.5625 28.8318 24.7629 28.8318 23.7757V9.471C28.8318 8.48382 29.6314 7.68425 30.6186 7.68425H33.282V15.3092L39.9186 7.68425H43.2047C43.9766 7.68425 44.3849 8.59727 43.8712 9.17261L38.4086 15.2833L44.7182 24.1518C45.139 24.7432 44.7164 25.5634 43.99 25.5634H40.3608L35.3378 18.4843ZM51.1724 26.1807C51.1724 29.772 48.5439 32.3226 44.8477 32.3226C42.5051 32.3226 39.9284 31.0996 38.7052 29.3557L40.2634 27.8263C40.8924 27.209 41.877 27.142 42.5828 27.669C43.1028 28.0577 43.7139 28.289 44.3009 28.289C45.7063 28.289 46.7213 27.2483 46.7213 25.7644V15.9185C46.7213 14.9313 47.5209 14.1317 48.5082 14.1317H51.1715V26.1807H51.1724Z" fill="white"/>
<path d="M14.6474 0.906208C13.9031 0.162027 12.8328 -0.151548 11.8169 0.077156L4.06625 1.82013C2.94229 2.07296 2.06939 2.94578 1.81655 4.06965L0.0734301 11.8197C-0.155293 12.8354 0.158308 13.9057 0.90255 14.6499L5.34299 19.09C6.08455 19.8315 7.15044 20.1459 8.1645 19.9208L15.9116 18.2037C17.04 17.9536 17.9174 17.0781 18.1702 15.9506L19.9142 8.17113C20.1421 7.15537 19.8285 6.08689 19.0842 5.34271L14.6474 0.906208Z" fill="white"/>
<path d="M12.3092 25.4785C11.9393 25.1086 11.4068 24.9523 10.9011 25.0658L7.04501 25.9332C6.48571 26.0592 6.05149 26.4934 5.92552 27.0526L5.05798 30.9084C4.94451 31.4141 5.09997 31.9465 5.47075 32.3164L7.68025 34.5257C8.04924 34.8947 8.57995 35.051 9.08386 34.9393L12.9382 34.0853C13.5002 33.9611 13.9362 33.5251 14.0622 32.9641L14.9297 29.094C15.0432 28.5883 14.8868 28.0568 14.5169 27.6869L12.3092 25.4794V25.4785Z" fill="white"/>
</svg>
